<svg width="1280" height="1116" viewBox="0 0 1280 1116" fill="none" xmlns="http://www.w3.org/2000/svg">
<path opacity="0.05" d="M288.477 966.833C238.017 885.481 176.21 805.702 103.057 727.494C29.904 649.286 -4.16634 553.609 0.846142 440.461C5.85862 327.314 63.4137 249.724 173.511 207.692C283.609 165.659 374.917 118.001 447.437 64.716C519.956 11.4312 601.042 -8.47733 690.695 4.99041C780.349 18.4582 884.112 25.5672 1001.98 26.3175C1119.86 27.0677 1180.89 86.0925 1185.08 203.392C1189.27 320.691 1212.64 425.858 1255.2 518.892C1297.75 611.925 1285.02 696.249 1217.01 771.863C1149 847.476 1080.29 912.244 1010.88 966.165C941.474 1020.09 864.091 1060.7 778.734 1088.01C693.377 1115.31 602.943 1122.28 507.433 1108.91C411.923 1095.54 338.938 1048.19 288.477 966.833Z" fill="#6440FB"/></svg>
