<svg width="16" height="16" viewBox="0 0 16 16" fill="none" xmlns="http://www.w3.org/2000/svg">
<path d="M2.15506 9.18054C0.966781 9.18054 0 10.1473 0 11.3356V13.8449C0 15.0333 0.966781 16 2.15509 16C3.34341 16 4.31016 15.0333 4.31016 13.8449V11.3356C4.31016 10.1473 3.34337 9.18054 2.15506 9.18054ZM3.06013 13.8449C3.06013 14.344 2.65412 14.75 2.15506 14.75C1.65603 14.75 1.25 14.344 1.25 13.8449V11.3356C1.25 10.8365 1.65603 10.4305 2.15509 10.4305C2.65416 10.4305 3.06016 10.8366 3.06013 11.3356V13.8449V13.8449Z" fill="#6A7A99"/>
<path d="M7.99993 0C6.81163 0 5.84485 0.966781 5.84485 2.15509V13.8449C5.84485 15.0332 6.81163 16 7.99993 16C9.18824 16 10.155 15.0332 10.155 13.8449V2.15509C10.155 0.966781 9.18824 0 7.99993 0ZM8.90503 13.8449C8.90503 14.344 8.499 14.75 7.99993 14.75C7.50087 14.75 7.09484 14.344 7.09484 13.8449V2.15509C7.09484 1.656 7.50087 1.25 7.99993 1.25C8.499 1.25 8.90503 1.656 8.90503 2.15509V13.8449Z" fill="#6A7A99"/>
<path d="M13.8448 4.59021C12.6565 4.59021 11.6897 5.55699 11.6897 6.7453V13.8449C11.6897 15.0332 12.6565 16 13.8448 16C15.0331 16 15.9999 15.0332 15.9999 13.8449V6.7453C15.9999 5.55699 15.0331 4.59021 13.8448 4.59021ZM14.7499 13.8449C14.7499 14.344 14.3438 14.75 13.8448 14.75C13.3457 14.75 12.9397 14.344 12.9397 13.8449V6.7453C12.9397 6.24621 13.3457 5.84021 13.8448 5.84021C14.3438 5.84021 14.7499 6.24621 14.7499 6.7453V13.8449Z" fill="#6A7A99"/>
</svg>
