<svg width="1797" height="608" viewBox="0 0 1797 608" fill="none" xmlns="http://www.w3.org/2000/svg">
<g opacity="0.2">
<path d="M169.005 328.266L157.989 328.176C156.815 328.176 155.912 327.228 155.912 326.054C155.912 324.88 156.86 323.977 158.034 323.977L169.05 324.068C170.224 324.068 171.127 325.016 171.127 326.19C171.127 327.318 170.179 328.266 169.005 328.266Z" stroke="#0071B8" stroke-miterlimit="10"/>
<path d="M169.005 332.51L157.989 332.42C156.815 332.42 155.912 331.472 155.912 330.298C155.912 329.124 156.86 328.221 158.034 328.221L169.05 328.311C170.224 328.311 171.127 329.26 171.127 330.433C171.082 331.607 170.133 332.51 169.005 332.51Z" stroke="#0071B8" stroke-miterlimit="10"/>
<path d="M153.158 314.135C153.158 314.181 153.203 314.181 153.203 314.226C153.655 314.858 156.454 318.921 157.537 324.023H169.321C170.404 318.876 173.203 314.858 173.655 314.226C173.655 314.181 173.7 314.181 173.7 314.135C173.926 313.819 174.151 313.503 174.332 313.187C175.461 311.291 176.138 309.034 176.138 306.686C176.138 299.688 170.449 294 163.452 294C156.454 294 150.765 299.688 150.765 306.686C150.765 309.079 151.443 311.291 152.571 313.187C152.752 313.503 152.932 313.819 153.158 314.135Z" stroke="#0071B8" stroke-miterlimit="10"/>
<path d="M158.621 332.465C159.208 334.587 161.149 336.167 163.452 336.167C165.754 336.167 167.65 334.632 168.282 332.555L158.621 332.465Z" stroke="#0071B8" stroke-miterlimit="10"/>
<path d="M161.194 323.977V313.368C161.194 312.33 160.337 311.472 159.298 311.472C158.26 311.472 157.402 312.33 157.402 313.368C157.402 314.406 158.26 315.264 159.298 315.264H163.542" stroke="#0071B8" stroke-miterlimit="10"/>
<path d="M165.844 323.977V313.368C165.844 312.33 166.702 311.472 167.741 311.472C168.779 311.472 169.637 312.33 169.637 313.368C169.637 314.406 168.779 315.264 167.741 315.264H163.542" stroke="#0071B8" stroke-miterlimit="10"/>
<path d="M179.479 309.214H183" stroke="#0071B8" stroke-miterlimit="10" stroke-linecap="round"/>
<path d="M179.614 304.7L182.774 303.12" stroke="#0071B8" stroke-miterlimit="10" stroke-linecap="round"/>
<path d="M178.35 313.413L181.51 314.993" stroke="#0071B8" stroke-miterlimit="10" stroke-linecap="round"/>
<path d="M146.521 309.214H143" stroke="#0071B8" stroke-miterlimit="10" stroke-linecap="round"/>
<path d="M146.386 304.7L143.226 303.12" stroke="#0071B8" stroke-miterlimit="10" stroke-linecap="round"/>
<path d="M147.65 313.413L144.49 314.993" stroke="#0071B8" stroke-miterlimit="10" stroke-linecap="round"/>
<path d="M20.2782 572.331C30.9253 572.331 39.5565 568.244 39.5565 563.204C39.5565 558.163 30.9253 554.077 20.2782 554.077C9.63116 554.077 1 558.163 1 563.204C1 568.244 9.63116 572.331 20.2782 572.331Z" stroke="#0071B8" stroke-miterlimit="10" stroke-linecap="round" stroke-linejoin="round"/>
<path d="M28.1003 567.958C33.6368 558.865 34.6349 549.368 30.3297 546.747C26.0245 544.126 18.0462 549.373 12.5097 558.466C6.97324 567.56 5.97511 577.057 10.2803 579.678C14.5855 582.299 22.5638 577.052 28.1003 567.958Z" stroke="#0071B8" stroke-miterlimit="10" stroke-linecap="round" stroke-linejoin="round"/>
<path d="M30.3154 579.677C34.6206 577.056 33.6225 567.559 28.086 558.466C22.5495 549.372 14.5712 544.125 10.266 546.746C5.96081 549.367 6.95895 558.864 12.4954 567.957C18.0319 577.051 26.0102 582.298 30.3154 579.677Z" stroke="#0071B8" stroke-miterlimit="10" stroke-linecap="round" stroke-linejoin="round"/>
<path d="M20.2782 565.625C21.6155 565.625 22.6996 564.541 22.6996 563.204C22.6996 561.866 21.6155 560.782 20.2782 560.782C18.9409 560.782 17.8568 561.866 17.8568 563.204C17.8568 564.541 18.9409 565.625 20.2782 565.625Z" stroke="#0071B8" stroke-miterlimit="10" stroke-linecap="round" stroke-linejoin="round"/>
<path d="M1763.17 561.895C1763.17 562.962 1762.3 563.877 1761.18 563.877C1760.07 563.877 1759.25 562.962 1759.25 561.895C1759.25 560.827 1760.12 559.912 1761.24 559.912C1762.35 559.912 1763.17 560.827 1763.17 561.895Z" stroke="#0071B8" stroke-miterlimit="10" stroke-linecap="round" stroke-linejoin="round"/>
<path d="M1768.5 556.964C1769.6 556.964 1770.49 556.077 1770.49 554.982C1770.49 553.887 1769.6 553 1768.5 553C1767.41 553 1766.52 553.887 1766.52 554.982C1766.52 556.077 1767.41 556.964 1768.5 556.964Z" stroke="#0071B8" stroke-miterlimit="10" stroke-linecap="round" stroke-linejoin="round"/>
<path d="M1793.46 563.877C1793.46 564.944 1792.59 565.859 1791.48 565.859C1790.41 565.859 1789.49 564.995 1789.49 563.877C1789.49 562.809 1790.36 561.895 1791.48 561.895C1792.59 561.895 1793.46 562.759 1793.46 563.877Z" stroke="#0071B8" stroke-miterlimit="10" stroke-linecap="round" stroke-linejoin="round"/>
<path d="M1770.64 573.229L1760.22 573.127C1759.3 573.127 1758.54 572.365 1758.54 571.399V570.992C1758.54 570.078 1759.3 569.315 1760.27 569.315L1770.69 569.417C1771.6 569.417 1772.37 570.179 1772.37 571.145V571.552C1772.32 572.466 1771.55 573.229 1770.64 573.229Z" stroke="#0071B8" stroke-miterlimit="10" stroke-linecap="round"/>
<path d="M1770.03 585.071V573.229H1760.83V585.071L1756 602.606C1756 605.046 1757.98 607.079 1760.47 607.079H1770.43C1772.87 607.079 1774.91 605.097 1774.91 602.606L1770.03 585.071Z" stroke="#0071B8" stroke-miterlimit="10" stroke-linecap="round"/>
<path d="M1758.64 592.949C1758.64 592.949 1761.39 591.17 1765.4 593.305C1769.42 595.44 1771.91 592.034 1771.91 592.034" stroke="#0071B8" stroke-miterlimit="10" stroke-linecap="round"/>
<path d="M1794.27 573.229L1783.85 573.127C1782.94 573.127 1782.18 572.365 1782.18 571.399V570.992C1782.18 570.078 1782.94 569.315 1783.9 569.315L1794.32 569.417C1795.24 569.417 1796 570.179 1796 571.145V571.552C1796 572.466 1795.24 573.229 1794.27 573.229Z" stroke="#0071B8" stroke-miterlimit="10" stroke-linecap="round"/>
<path d="M1784.46 602.555C1784.46 605.097 1786.55 607.18 1789.09 607.18C1791.63 607.18 1793.71 605.097 1793.71 602.555V573.229H1784.46V602.555Z" stroke="#0071B8" stroke-miterlimit="10" stroke-linecap="round"/>
<path d="M1784.46 602.555C1784.46 605.097 1786.55 607.18 1789.09 607.18C1791.63 607.18 1793.71 605.097 1793.71 602.555V573.229H1784.46V602.555Z" stroke="#0071B8" stroke-miterlimit="10" stroke-linecap="round"/>
<path d="M1784.46 592.339C1785.63 592.187 1787.26 592.339 1789.19 593.356C1791.02 594.322 1792.54 594.118 1793.66 593.661" stroke="#0071B8" stroke-miterlimit="10" stroke-linecap="round"/>
<path d="M1740.43 97.7799H1736.65C1736.4 97.7799 1736.24 97.617 1736.24 97.3726V86.6598C1736.24 86.4154 1736.4 86.2524 1736.65 86.2524H1740.43C1740.68 86.2524 1740.84 86.4154 1740.84 86.6598V97.3726C1740.84 97.617 1740.68 97.7799 1740.43 97.7799Z" stroke="#0071B8" stroke-miterlimit="10"/>
<path d="M1748.17 97.78H1744.38C1744.14 97.78 1743.98 97.6171 1743.98 97.3727V82.8309C1743.98 82.5865 1744.14 82.4236 1744.38 82.4236H1748.17C1748.42 82.4236 1748.58 82.5865 1748.58 82.8309V97.4134C1748.58 97.6171 1748.42 97.78 1748.17 97.78Z" stroke="#0071B8" stroke-miterlimit="10"/>
<path d="M1755.95 97.78H1752.17C1751.92 97.78 1751.76 97.6171 1751.76 97.3727V78.9613C1751.76 78.7169 1751.92 78.554 1752.17 78.554H1755.95C1756.2 78.554 1756.36 78.7169 1756.36 78.9613V97.3727C1756.36 97.6171 1756.16 97.78 1755.95 97.78Z" stroke="#0071B8" stroke-miterlimit="10"/>
<path d="M1728.62 70V103.36" stroke="#0071B8" stroke-miterlimit="10" stroke-linecap="round" stroke-linejoin="round"/>
<path d="M1763 97.78H1723" stroke="#0071B8" stroke-miterlimit="10" stroke-linecap="round" stroke-linejoin="round"/>
<path d="M1009 1H999.343V40.8627H1009V1Z" stroke="#0071B8" stroke-miterlimit="10" stroke-linecap="round" stroke-linejoin="round"/>
<path d="M1009 5.75977H1004.15" stroke="#0071B8" stroke-miterlimit="10" stroke-linecap="round" stroke-linejoin="round"/>
<path d="M1009 15.0046H1004.15" stroke="#0071B8" stroke-miterlimit="10" stroke-linecap="round" stroke-linejoin="round"/>
<path d="M1009 24.2494H1004.15" stroke="#0071B8" stroke-miterlimit="10" stroke-linecap="round" stroke-linejoin="round"/>
<path d="M1009 33.4943H1004.15" stroke="#0071B8" stroke-miterlimit="10" stroke-linecap="round" stroke-linejoin="round"/>
<path d="M1009 8.82617H1006.57" stroke="#0071B8" stroke-miterlimit="10" stroke-linecap="round" stroke-linejoin="round"/>
<path d="M1009 11.9382H1006.57" stroke="#0071B8" stroke-miterlimit="10" stroke-linecap="round" stroke-linejoin="round"/>
<path d="M1009 18.0709H1006.57" stroke="#0071B8" stroke-miterlimit="10" stroke-linecap="round" stroke-linejoin="round"/>
<path d="M1009 21.1831H1006.57" stroke="#0071B8" stroke-miterlimit="10" stroke-linecap="round" stroke-linejoin="round"/>
<path d="M1009 27.3158H1006.57" stroke="#0071B8" stroke-miterlimit="10" stroke-linecap="round" stroke-linejoin="round"/>
<path d="M1009 30.428H1006.57" stroke="#0071B8" stroke-miterlimit="10" stroke-linecap="round" stroke-linejoin="round"/>
<path d="M990.373 15.0046H987.444" stroke="#0071B8" stroke-miterlimit="10" stroke-linecap="round" stroke-linejoin="round"/>
<path d="M990.373 24.2495H987.444" stroke="#0071B8" stroke-miterlimit="10" stroke-linecap="round" stroke-linejoin="round"/>
<path d="M990.373 33.4944H987.444" stroke="#0071B8" stroke-miterlimit="10" stroke-linecap="round" stroke-linejoin="round"/>
<path d="M990.373 8.82617H988.908" stroke="#0071B8" stroke-miterlimit="10" stroke-linecap="round" stroke-linejoin="round"/>
<path d="M990.373 11.9382H988.908" stroke="#0071B8" stroke-miterlimit="10" stroke-linecap="round" stroke-linejoin="round"/>
<path d="M990.373 18.071H988.908" stroke="#0071B8" stroke-miterlimit="10" stroke-linecap="round" stroke-linejoin="round"/>
<path d="M990.373 21.1831H988.908" stroke="#0071B8" stroke-miterlimit="10" stroke-linecap="round" stroke-linejoin="round"/>
<path d="M990.373 27.3159H988.908" stroke="#0071B8" stroke-miterlimit="10" stroke-linecap="round" stroke-linejoin="round"/>
<path d="M990.373 36.698H988.908" stroke="#0071B8" stroke-miterlimit="10" stroke-linecap="round" stroke-linejoin="round"/>
<path d="M990.373 30.428H988.908" stroke="#0071B8" stroke-miterlimit="10" stroke-linecap="round" stroke-linejoin="round"/>
<path d="M969 40.8627L990.373 1V40.8627H969Z" stroke="#0071B8" stroke-miterlimit="10" stroke-linecap="round" stroke-linejoin="round"/>
<path d="M978.703 35.0504L984.561 24.158V35.0504H978.703Z" stroke="#0071B8" stroke-miterlimit="10" stroke-linecap="round" stroke-linejoin="round"/>
<path d="M806.001 582.735L814.755 573.981L790.476 549.702L781.723 558.456L806.001 582.735Z" stroke="#0071B8" stroke-miterlimit="10" stroke-linecap="round" stroke-linejoin="round"/>
<path d="M817.124 585.124L814.73 573.971L805.971 582.73L817.124 585.124Z" stroke="#0071B8" stroke-miterlimit="10" stroke-linecap="round" stroke-linejoin="round"/>
<path d="M816.015 579.927L811.927 584.015" stroke="#0071B8" stroke-miterlimit="10" stroke-linecap="round" stroke-linejoin="round"/>
<path d="M780.161 550.73L782.73 548.16C784.423 546.467 787.226 546.467 788.92 548.16L790.438 549.679L781.679 558.438L780.161 556.92C778.467 555.226 778.467 552.423 780.161 550.73Z" stroke="#0071B8" stroke-miterlimit="10" stroke-linecap="round" stroke-linejoin="round"/>
<path d="M792.832 552.073L784.073 560.832" stroke="#0071B8" stroke-miterlimit="10" stroke-linecap="round" stroke-linejoin="round"/>
<path d="M810.351 578.35L788.453 556.453" stroke="#0071B8" stroke-miterlimit="10" stroke-linecap="round" stroke-linejoin="round"/>
<path d="M100.377 55.6661L89.8237 66.0615C88.6687 67.164 86.8836 67.164 85.7811 66.009C84.731 64.9064 84.731 63.1213 85.8336 62.0188L96.3865 51.6234C97.489 50.5209 99.2741 50.5209 100.377 51.6759C101.479 52.7785 101.479 54.616 100.377 55.6661Z" stroke="#0071B8" stroke-miterlimit="10" stroke-linecap="round"/>
<path d="M112.819 51.3609C119.547 51.3609 125 45.9075 125 39.1804C125 32.4534 119.547 27 112.819 27C106.092 27 100.639 32.4534 100.639 39.1804C100.639 45.9075 106.092 51.3609 112.819 51.3609Z" stroke="#0071B8" stroke-miterlimit="10" stroke-linecap="round"/>
<path d="M112.819 47.9482C117.662 47.9482 121.587 44.0227 121.587 39.1804C121.587 34.3381 117.662 30.4126 112.819 30.4126C107.977 30.4126 104.052 34.3381 104.052 39.1804C104.052 44.0227 107.977 47.9482 112.819 47.9482Z" stroke="#0071B8" stroke-miterlimit="10" stroke-linecap="round"/>
<path d="M104.209 47.7383L100.797 51.1509" stroke="#0071B8" stroke-miterlimit="10" stroke-linecap="round"/>
<path d="M1547.7 422C1555.54 422 1561.9 415.642 1561.9 407.8C1561.9 399.958 1555.54 393.6 1547.7 393.6C1539.86 393.6 1533.5 399.958 1533.5 407.8C1533.5 415.642 1539.86 422 1547.7 422Z" stroke="#0071B8" stroke-miterlimit="10" stroke-linecap="round" stroke-linejoin="round"/>
<path d="M1659.2 233.2C1667.04 233.2 1673.4 226.842 1673.4 219C1673.4 211.158 1667.04 204.8 1659.2 204.8C1651.36 204.8 1645 211.158 1645 219C1645 226.842 1651.36 233.2 1659.2 233.2Z" stroke="#0071B8" stroke-miterlimit="10" stroke-linecap="round" stroke-linejoin="round"/>
<path d="M1050.1 577.2C1057.94 577.2 1064.3 570.842 1064.3 563C1064.3 555.157 1057.94 548.8 1050.1 548.8C1042.26 548.8 1035.9 555.157 1035.9 563C1035.9 570.842 1042.26 577.2 1050.1 577.2Z" stroke="#0071B8" stroke-miterlimit="10" stroke-linecap="round" stroke-linejoin="round"/>
<path d="M1004.7 267C1012.54 267 1018.9 260.642 1018.9 252.8C1018.9 244.958 1012.54 238.6 1004.7 238.6C996.858 238.6 990.5 244.958 990.5 252.8C990.5 260.642 996.858 267 1004.7 267Z" stroke="#0071B8" stroke-miterlimit="10" stroke-linecap="round" stroke-linejoin="round"/>
<path d="M1224.3 217.7C1230.65 217.7 1235.8 212.551 1235.8 206.2C1235.8 199.849 1230.65 194.7 1224.3 194.7C1217.95 194.7 1212.8 199.849 1212.8 206.2C1212.8 212.551 1217.95 217.7 1224.3 217.7Z" stroke="#0071B8" stroke-miterlimit="10" stroke-linecap="round" stroke-linejoin="round"/>
<path d="M1504.3 601C1510.65 601 1515.8 595.851 1515.8 589.5C1515.8 583.149 1510.65 578 1504.3 578C1497.95 578 1492.8 583.149 1492.8 589.5C1492.8 595.851 1497.95 601 1504.3 601Z" stroke="#0071B8" stroke-miterlimit="10" stroke-linecap="round" stroke-linejoin="round"/>
<path d="M1425 134.4C1431.35 134.4 1436.5 129.251 1436.5 122.9C1436.5 116.549 1431.35 111.4 1425 111.4C1418.65 111.4 1413.5 116.549 1413.5 122.9C1413.5 129.251 1418.65 134.4 1425 134.4Z" stroke="#0071B8" stroke-miterlimit="10" stroke-linecap="round" stroke-linejoin="round"/>
<path d="M1138.4 486.8C1144.75 486.8 1149.9 481.651 1149.9 475.3C1149.9 468.949 1144.75 463.8 1138.4 463.8C1132.05 463.8 1126.9 468.949 1126.9 475.3C1126.9 481.651 1132.05 486.8 1138.4 486.8Z" stroke="#0071B8" stroke-miterlimit="10" stroke-linecap="round" stroke-linejoin="round"/>
<path d="M1708 343.9C1708 347 1705.5 349.6 1702.3 349.6C1699.2 349.6 1696.6 347.1 1696.6 343.9C1696.6 340.8 1699.1 338.2 1702.3 338.2C1705.4 338.2 1708 340.7 1708 343.9Z" stroke="#0071B8" stroke-miterlimit="10" stroke-linecap="round" stroke-linejoin="round"/>
<path d="M1217.9 48.6C1221.05 48.6 1223.6 46.048 1223.6 42.9C1223.6 39.7519 1221.05 37.2 1217.9 37.2C1214.75 37.2 1212.2 39.7519 1212.2 42.9C1212.2 46.048 1214.75 48.6 1217.9 48.6Z" stroke="#0071B8" stroke-miterlimit="10" stroke-linecap="round" stroke-linejoin="round"/>
<path d="M1525.5 298.8C1528.65 298.8 1531.2 296.248 1531.2 293.1C1531.2 289.952 1528.65 287.4 1525.5 287.4C1522.35 287.4 1519.8 289.952 1519.8 293.1C1519.8 296.248 1522.35 298.8 1525.5 298.8Z" stroke="#0071B8" stroke-miterlimit="10" stroke-linecap="round" stroke-linejoin="round"/>
<path d="M947.2 301.1C950.348 301.1 952.9 298.548 952.9 295.4C952.9 292.252 950.348 289.7 947.2 289.7C944.052 289.7 941.5 292.252 941.5 295.4C941.5 298.548 944.052 301.1 947.2 301.1Z" stroke="#0071B8" stroke-miterlimit="10" stroke-linecap="round" stroke-linejoin="round"/>
<path d="M1543.6 42.9C1546.75 42.9 1549.3 40.348 1549.3 37.2C1549.3 34.052 1546.75 31.5 1543.6 31.5C1540.45 31.5 1537.9 34.052 1537.9 37.2C1537.9 40.348 1540.45 42.9 1543.6 42.9Z" stroke="#0071B8" stroke-miterlimit="10" stroke-linecap="round" stroke-linejoin="round"/>
<path d="M1413.7 214.2C1413.7 217.3 1411.2 219.9 1408 219.9C1404.9 219.9 1402.3 217.4 1402.3 214.2C1402.3 211.1 1404.8 208.5 1408 208.5C1411.1 208.5 1413.7 211.1 1413.7 214.2Z" stroke="#0071B8" stroke-miterlimit="10" stroke-linecap="round" stroke-linejoin="round"/>
<path d="M1721.3 451C1721.3 454.1 1718.8 456.7 1715.6 456.7C1712.5 456.7 1709.9 454.2 1709.9 451C1709.9 447.9 1712.4 445.3 1715.6 445.3C1718.8 445.4 1721.3 447.9 1721.3 451Z" stroke="#0071B8" stroke-miterlimit="10" stroke-linecap="round" stroke-linejoin="round"/>
<path d="M1558.6 564.9C1558.6 568 1556.1 570.6 1552.9 570.6C1549.8 570.6 1547.2 568.1 1547.2 564.9C1547.2 561.8 1549.7 559.2 1552.9 559.2C1556 559.3 1558.6 561.8 1558.6 564.9Z" stroke="#0071B8" stroke-miterlimit="10" stroke-linecap="round" stroke-linejoin="round"/>
<path d="M1109.8 601.3C1109.8 604.4 1107.3 607 1104.1 607C1101 607 1098.4 604.5 1098.4 601.3C1098.4 598.2 1100.9 595.6 1104.1 595.6C1107.2 595.7 1109.8 598.2 1109.8 601.3Z" stroke="#0071B8" stroke-miterlimit="10" stroke-linecap="round" stroke-linejoin="round"/>
<path d="M973.6 492.1C973.6 495.2 971.1 497.8 967.9 497.8C964.8 497.8 962.2 495.3 962.2 492.1C962.2 489 964.7 486.4 967.9 486.4C971 486.4 973.6 489 973.6 492.1Z" stroke="#0071B8" stroke-miterlimit="10" stroke-linecap="round" stroke-linejoin="round"/>
</g>
</svg>
