<svg width="20" height="20" viewBox="0 0 20 20" fill="none" xmlns="http://www.w3.org/2000/svg">
<g clip-path="url(#clip0_241_63)">
<path d="M17.3384 7.69218L5.5259 0.410715C4.67129 -0.115419 3.63805 -0.137294 2.76191 0.352199C1.88578 0.841614 1.36273 1.73306 1.36273 2.73662V17.2332C1.36273 18.7506 2.58539 19.9918 4.08813 20C4.09223 20 4.09633 20 4.10035 20C4.56996 20 5.05934 19.8528 5.51641 19.5739C5.88411 19.3495 6.00032 18.8696 5.77598 18.502C5.55165 18.1342 5.07165 18.0181 4.70407 18.2424C4.49028 18.3728 4.28149 18.4402 4.09653 18.4402C3.52953 18.4371 2.92246 17.9514 2.92246 17.2333V2.73666C2.92246 2.30615 3.14684 1.92384 3.52262 1.71388C3.89844 1.50392 4.3416 1.5133 4.70774 1.73873L16.5203 9.02019C16.8753 9.23878 17.0785 9.60327 17.0776 10.0202C17.0768 10.4371 16.8721 10.8008 16.5151 11.0187L7.97462 16.2479C7.60728 16.4728 7.49181 16.9529 7.71673 17.3202C7.94161 17.6876 8.42173 17.8031 8.78907 17.5781L17.3286 12.3495C18.1462 11.8507 18.6355 10.9812 18.6375 10.0234C18.6394 9.06562 18.1536 8.19405 17.3384 7.69218Z" fill="black"/>
</g>
<defs>
<clipPath id="clip0_241_63">
<rect width="20" height="20" fill="white"/>
</clipPath>
</defs>
</svg>
