<svg width="60" height="60" viewBox="0 0 60 60" fill="none" xmlns="http://www.w3.org/2000/svg">
<g clip-path="url(#clip0_238_2)">
<path d="M19.6886 37.9935C20.5253 32.8319 17.0193 27.9693 11.8577 27.1326C6.69612 26.2958 1.83352 29.8018 0.996788 34.9634C0.160056 40.125 3.66604 44.9876 8.82764 45.8244C13.9892 46.6611 18.8518 43.1551 19.6886 37.9935Z" fill="#E1D3CE"/>
<path d="M15.8301 43.9742C14.9883 41.7657 12.852 40.196 10.3479 40.196C7.83268 40.196 5.68862 41.7796 4.85448 44.0035C4.83561 44.0537 4.81744 44.1045 4.79987 44.1553C6.35928 45.285 8.27506 45.9529 10.3479 45.9529C12.4207 45.9529 14.3365 45.285 15.8959 44.1553C15.8749 44.0945 15.8531 44.0342 15.8301 43.9742Z" fill="#FFE177"/>
<path d="M10.3474 37.2269C11.9452 37.2269 13.2405 35.669 13.2405 33.7472C13.2405 31.8255 11.9452 30.2676 10.3474 30.2676C8.74958 30.2676 7.45428 31.8255 7.45428 33.7472C7.45428 35.669 8.74958 37.2269 10.3474 37.2269Z" fill="#FAF7F7"/>
<path d="M59.0058 37.9383C59.8217 32.7715 56.2945 27.9216 51.1277 27.1058C45.9608 26.29 41.111 29.8172 40.2952 34.984C39.4793 40.1508 43.0065 45.0007 48.1733 45.8165C53.3402 46.6323 58.19 43.1051 59.0058 37.9383Z" fill="#E1D3CE"/>
<path d="M41.4232 31.8015C40.6354 33.1829 40.183 34.7803 40.183 36.4843C40.183 40.6816 42.915 44.2387 46.6969 45.4805C46.8246 44.7085 46.8921 43.9164 46.8921 43.1083C46.8921 38.5261 44.7549 34.4434 41.4232 31.8015V31.8015Z" fill="#CDBFBA"/>
<path d="M55.1339 43.9742C54.292 41.7657 52.1558 40.196 49.6516 40.196C47.1364 40.196 44.9924 41.7796 44.1582 44.0035C44.1394 44.0537 44.1212 44.1045 44.1036 44.1553C45.6629 45.285 47.5788 45.9529 49.6516 45.9529C51.7245 45.9529 53.6402 45.285 55.1996 44.1553C55.1787 44.0945 55.1568 44.0342 55.1339 43.9742V43.9742Z" fill="#FD8087"/>
<path d="M44.1582 44.0039C44.1394 44.0541 44.1212 44.1048 44.1036 44.1557C44.8865 44.7228 45.7591 45.1734 46.6964 45.4816C46.8243 44.7094 46.8919 43.9168 46.8919 43.1083C46.8919 42.3829 46.8377 41.6703 46.7344 40.9736C45.5595 41.6492 44.6401 42.7193 44.1582 44.0039Z" fill="#FE646F"/>
<path d="M56.6406 2.46936H3.61106C2.7168 2.46936 1.99188 3.19428 1.99188 4.08854V16.8569C1.99188 17.7512 2.7168 18.4761 3.61106 18.4761H24.964C25.444 18.4761 25.8875 18.7322 26.1275 19.1478L29.2866 24.6196C29.6596 25.2656 30.5922 25.2656 30.9652 24.6196L34.1243 19.1478C34.3643 18.7322 34.8079 18.4761 35.2878 18.4761H56.6407C57.535 18.4761 58.2598 17.7512 58.2598 16.8571V4.08854C58.2597 3.19428 57.5348 2.46936 56.6406 2.46936V2.46936Z" fill="#FFE177"/>
<path d="M56.641 2.46936H54.7446V14.5131C54.7446 15.4073 54.0196 16.1321 53.1255 16.1321H31.7724C31.2924 16.1321 30.849 16.3882 30.609 16.8039L27.6918 21.8566L29.287 24.6194C29.66 25.2655 30.5926 25.2655 30.9656 24.6194L34.1247 19.1477C34.3647 18.7321 34.8083 18.476 35.2882 18.476H56.6411C57.5354 18.476 58.2602 17.7511 58.2602 16.8569V4.08854C58.2601 3.19428 57.5352 2.46936 56.641 2.46936V2.46936Z" fill="#FFD15B"/>
<path d="M49.6526 37.2269C51.2505 37.2269 52.5458 35.669 52.5458 33.7472C52.5458 31.8255 51.2505 30.2676 49.6526 30.2676C48.0548 30.2676 46.7595 31.8255 46.7595 33.7472C46.7595 35.669 48.0548 37.2269 49.6526 37.2269Z" fill="#FAF7F7"/>
<path d="M40.3145 53.3036C45.9461 47.672 45.9461 38.5414 40.3145 32.9097C34.6829 27.2781 25.5522 27.2781 19.9206 32.9097C14.289 38.5414 14.289 47.672 19.9206 53.3036C25.5522 58.9353 34.6829 58.9353 40.3145 53.3036Z" fill="#F3EAE6"/>
<path d="M30.1255 28.6853C29.5304 28.6853 28.9439 28.7221 28.3677 28.7922C35.504 29.6594 41.0327 35.7379 41.0327 43.1083C41.0327 50.4787 35.504 56.5571 28.3677 57.4244C28.9439 57.4943 29.5304 57.5312 30.1255 57.5312C38.0911 57.5312 44.5483 51.0739 44.5483 43.1084C44.5483 35.1427 38.0911 28.6853 30.1255 28.6853Z" fill="#E1D3CE"/>
<path d="M38.4763 54.5172C37.1939 51.1532 33.9401 48.7625 30.1257 48.7625C26.2945 48.7625 23.0289 51.1744 21.7583 54.5618C21.7296 54.6385 21.7018 54.7156 21.6751 54.7933C24.0503 56.5139 26.9684 57.5312 30.1256 57.5312C33.2829 57.5312 36.201 56.5139 38.5761 54.7933C38.5444 54.7006 38.5111 54.6085 38.4763 54.5172V54.5172Z" fill="#62DBFB"/>
<path d="M28.3677 57.4243C30.097 57.6324 31.8694 57.5339 33.5605 57.1184C35.3949 56.6691 37.0916 55.8685 38.576 54.7931C38.3087 54.0137 37.9289 53.2727 37.464 52.6045C35.1838 55.2084 31.9823 56.9851 28.3677 57.4243V57.4243Z" fill="#01D0FB"/>
<path d="M30.1259 44.239C32.5598 44.239 34.5328 41.8661 34.5328 38.939C34.5328 36.0118 32.5598 33.6389 30.1259 33.6389C27.6921 33.6389 25.7191 36.0118 25.7191 38.939C25.7191 41.8661 27.6921 44.239 30.1259 44.239Z" fill="#FAF7F7"/>
<path d="M12.0387 6.29475L12.9176 8.07565C12.9918 8.226 13.1351 8.33006 13.301 8.3542L15.2664 8.63979C15.6841 8.70049 15.8508 9.21377 15.5486 9.50838L14.1265 10.8946C14.0065 11.0115 13.9517 11.1802 13.98 11.3453L14.3158 13.3027C14.3871 13.7187 13.9505 14.0359 13.5769 13.8395L11.8191 12.9154C11.6707 12.8373 11.4935 12.8373 11.3452 12.9154L9.58738 13.8395C9.21378 14.0359 8.77714 13.7187 8.84851 13.3027L9.18425 11.3453C9.21261 11.1801 9.15777 11.0115 9.03777 10.8946L7.61558 9.50838C7.31335 9.21377 7.48011 8.70049 7.89777 8.63979L9.86312 8.3542C10.0289 8.33006 10.1724 8.22588 10.2466 8.07565L11.1255 6.29475C11.3123 5.91624 11.8519 5.91624 12.0387 6.29475V6.29475Z" fill="#FAF7F7"/>
<path d="M24.4009 6.29475L25.2798 8.07565C25.354 8.226 25.4974 8.33006 25.6632 8.3542L27.6286 8.63979C28.0462 8.70049 28.213 9.21377 27.9108 9.50838L26.4887 10.8946C26.3687 11.0115 26.314 11.1802 26.3422 11.3453L26.678 13.3027C26.7493 13.7187 26.3127 14.0359 25.9391 13.8395L24.1813 12.9154C24.0329 12.8373 23.8557 12.8373 23.7074 12.9154L21.9496 13.8395C21.576 14.0359 21.1393 13.7187 21.2107 13.3027L21.5464 11.3453C21.5748 11.1801 21.52 11.0115 21.4 10.8946L19.9779 9.50838C19.6757 9.21377 19.8424 8.70049 20.2601 8.63979L22.2254 8.3542C22.3912 8.33006 22.5347 8.22588 22.6089 8.07565L23.4878 6.29475C23.6744 5.91624 24.2141 5.91624 24.4009 6.29475V6.29475Z" fill="#FAF7F7"/>
<path d="M36.7631 6.29475L37.642 8.07565C37.7162 8.226 37.8595 8.33006 38.0254 8.3542L39.9908 8.63979C40.4084 8.70049 40.5752 9.21377 40.273 9.50838L38.8509 10.8946C38.7309 11.0115 38.676 11.1802 38.7044 11.3453L39.0401 13.3027C39.1115 13.7187 38.6749 14.0359 38.3013 13.8395L36.5435 12.9154C36.3951 12.8373 36.2179 12.8373 36.0696 12.9154L34.3117 13.8395C33.9382 14.0359 33.5015 13.7187 33.5729 13.3027L33.9086 11.3453C33.937 11.1801 33.8823 11.0115 33.7621 10.8946L32.3401 9.50838C32.0378 9.21377 32.2046 8.70049 32.6223 8.63979L34.5876 8.3542C34.7534 8.33006 34.8969 8.22588 34.971 8.07565L35.8499 6.29475C36.0366 5.91624 36.5763 5.91624 36.7631 6.29475V6.29475Z" fill="#FAF7F7"/>
<path d="M49.1257 6.29475L50.0046 8.07565C50.0788 8.226 50.2222 8.33006 50.388 8.3542L52.3534 8.63979C52.771 8.70049 52.9378 9.21377 52.6356 9.50838L51.2135 10.8946C51.0935 11.0115 51.0388 11.1802 51.067 11.3453L51.4028 13.3027C51.4741 13.7187 51.0375 14.0359 50.6639 13.8395L48.9061 12.9154C48.7577 12.8373 48.5805 12.8373 48.4322 12.9154L46.6744 13.8395C46.3008 14.0359 45.8641 13.7187 45.9355 13.3027L46.2712 11.3453C46.2996 11.1801 46.2449 11.0115 46.1247 10.8946L44.7027 9.50838C44.4005 9.21377 44.5672 8.70049 44.9849 8.63979L46.9502 8.3542C47.116 8.33006 47.2595 8.22588 47.3337 8.07565L48.2126 6.29475C48.3992 5.91624 48.9389 5.91624 49.1257 6.29475V6.29475Z" fill="#FAF7F7"/>
<path d="M10.3475 38.1058C12.4275 38.1058 14.1196 36.1505 14.1196 33.7472C14.1196 31.3439 12.4275 29.3888 10.3475 29.3888C8.26757 29.3888 6.5755 31.3441 6.5755 33.7472C6.5755 36.1506 8.26769 38.1058 10.3475 38.1058ZM10.3475 31.1466C11.4582 31.1466 12.3617 32.3133 12.3617 33.7472C12.3617 35.1812 11.4581 36.348 10.3475 36.348C9.23683 36.348 8.33331 35.1812 8.33331 33.7472C8.33331 32.3132 9.23695 31.1466 10.3475 31.1466Z" fill="black"/>
<path d="M49.6523 29.3888C47.5723 29.3888 45.8802 31.3441 45.8802 33.7472C45.8802 36.1505 47.5723 38.1058 49.6523 38.1058C51.7322 38.1058 53.4244 36.1505 53.4244 33.7472C53.4244 31.3439 51.7322 29.3888 49.6523 29.3888V29.3888ZM49.6523 36.348C48.5417 36.348 47.6381 35.1812 47.6381 33.7472C47.6381 32.3132 48.5417 31.1466 49.6523 31.1466C50.763 31.1466 51.6666 32.3133 51.6666 33.7472C51.6666 35.1814 50.763 36.348 49.6523 36.348Z" fill="black"/>
<path d="M49.7333 26.1346C49.7061 26.1344 49.6793 26.1343 49.652 26.1343C45.7309 26.1343 42.1696 28.3603 40.4229 31.7991C37.7025 29.32 34.0876 27.8064 30.1259 27.8064C26.0788 27.8064 22.3942 29.3865 19.6548 31.9612C17.9386 28.4411 14.3156 26.1364 10.3479 26.1364C4.64203 26.1364 0 30.7784 0 36.4843C0 42.1901 4.64203 46.8322 10.3478 46.8322C11.9919 46.8322 13.5969 46.4443 15.0455 45.7053C16.2824 52.9101 22.5735 58.4102 30.1257 58.4102C37.6385 58.4102 43.9041 52.9679 45.1871 45.8186C46.5497 46.4702 48.047 46.8178 49.571 46.8298C49.5989 46.8301 49.6267 46.8302 49.6545 46.8302C52.3874 46.8302 54.9616 45.7761 56.9115 43.8565C58.8813 41.9174 59.9781 39.3275 59.9998 36.5635C60.0444 30.8578 55.4389 26.1794 49.7333 26.1346V26.1346ZM1.75781 36.4843C1.75781 31.7478 5.61129 27.8943 10.3478 27.8943C13.8701 27.8943 17.0652 30.0817 18.3471 33.3514C16.5452 35.523 15.3311 38.1987 14.9512 41.1326C13.7217 39.9831 12.0871 39.3174 10.3478 39.3174C7.90887 39.3174 5.65992 40.6614 4.47609 42.7458C2.80488 41.1775 1.75781 38.9514 1.75781 36.4843V36.4843ZM5.8916 43.8255C6.73031 42.1622 8.46199 41.0752 10.3479 41.0752C12.1929 41.0752 13.8795 42.0879 14.7497 43.7181C14.7693 43.7547 14.7918 43.7887 14.8154 43.8213C13.4722 44.6409 11.9323 45.0744 10.3479 45.0744C8.71734 45.0742 7.19156 44.6176 5.8916 43.8255V43.8255ZM22.749 54.4615C24.0244 51.5628 26.9389 49.6411 30.1257 49.6411C33.3168 49.6411 36.2268 51.5615 37.5022 54.4617C35.3784 55.8462 32.8446 56.6522 30.1257 56.6522C27.4068 56.6522 24.8729 55.8462 22.749 54.4615V54.4615ZM38.9388 53.3841C37.3059 50.0597 33.8752 47.8835 30.1259 47.8835C26.3814 47.8835 22.9459 50.0614 21.3128 53.3841C18.4185 50.8982 16.5819 47.214 16.5819 43.1083C16.5819 35.6401 22.6577 29.5644 30.1259 29.5644C37.5941 29.5644 43.6698 35.6402 43.6698 43.1083C43.6697 47.2138 41.8331 50.8982 38.9388 53.3841ZM49.5848 45.0719C48.1136 45.0603 46.6732 44.6723 45.4042 43.9491C45.4146 43.7572 45.4209 43.5643 45.4242 43.3706C45.4242 43.3706 46.9774 41.0752 49.6521 41.0752C51.5411 41.0752 53.2709 42.1621 54.1092 43.8269C52.759 44.6501 51.2041 45.0861 49.5848 45.0719V45.0719ZM55.6784 42.6037C55.6283 42.653 55.5762 42.6994 55.5252 42.7474C54.342 40.6612 52.095 39.3174 49.6521 39.3174C48.0286 39.3174 46.4808 39.9051 45.2728 40.9369C44.8521 37.9886 43.5885 35.3084 41.7336 33.1496C43.0673 29.9817 46.1902 27.8922 49.652 27.8922C49.6744 27.8922 49.6971 27.8922 49.7195 27.8924C54.456 27.9296 58.2791 31.8131 58.242 36.5495C58.2239 38.844 57.3135 40.994 55.6784 42.6037V42.6037Z" fill="black"/>
<path d="M30.1259 32.7605C27.2114 32.7605 24.8402 35.5323 24.8402 38.9394C24.8402 42.3466 27.2114 45.1184 30.1259 45.1184C33.0405 45.1184 35.4117 42.3466 35.4117 38.9394C35.4117 35.5325 33.0405 32.7605 30.1259 32.7605ZM30.1259 43.3606C28.1806 43.3606 26.598 41.3773 26.598 38.9394C26.598 36.5016 28.1806 34.5183 30.1259 34.5183C32.0713 34.5183 33.6539 36.5016 33.6539 38.9394C33.6539 41.3773 32.0713 43.3606 30.1259 43.3606Z" fill="black"/>
<path d="M8.28455 11.3882L7.98174 13.154C7.89174 13.6787 8.10338 14.1989 8.53392 14.5118C8.77732 14.6885 9.06197 14.7784 9.34849 14.7784C9.56916 14.7784 9.79088 14.725 9.99572 14.6174L11.5815 13.7837L13.1673 14.6174C13.6383 14.8651 14.1985 14.8245 14.6292 14.5118C15.0599 14.199 15.2715 13.6787 15.1815 13.154L14.8787 11.3882L16.1617 10.1377C16.5429 9.76626 16.6774 9.22098 16.5129 8.71473C16.3485 8.2086 15.9191 7.84661 15.3923 7.76997L13.6194 7.51227L12.8265 5.90575C12.591 5.42844 12.1139 5.13196 11.5816 5.13196C11.0494 5.13196 10.5724 5.42856 10.3369 5.90575L9.54396 7.51227L7.77092 7.76997C7.24427 7.84649 6.8149 8.20848 6.65037 8.71473C6.48595 9.22086 6.62048 9.76614 7.0017 10.1377L8.28455 11.3882ZM9.98892 9.22403C10.4413 9.1584 10.8321 8.87446 11.0342 8.46465L11.5816 7.35547L12.129 8.46454C12.3313 8.87434 12.722 9.15829 13.1742 9.22391L14.3982 9.4018L13.5123 10.2652C13.1852 10.5842 13.036 11.0435 13.1133 11.4938L13.3223 12.7128L12.2276 12.1373C11.823 11.9246 11.3401 11.9246 10.9357 12.1372L9.8408 12.7128L10.0499 11.4941C10.1272 11.0437 9.97814 10.5843 9.65072 10.2651L8.76502 9.4018L9.98892 9.22403Z" fill="black"/>
<path d="M28.8758 8.71473C28.7114 8.20859 28.282 7.8466 27.7552 7.76996L25.9823 7.51227L25.1894 5.90574C24.9539 5.42844 24.4769 5.13184 23.9447 5.13184C23.4124 5.13184 22.9354 5.42832 22.6999 5.90563L21.907 7.51215L20.1341 7.76984C19.6073 7.84637 19.1779 8.20836 19.0135 8.71461C18.849 9.22086 18.9836 9.76613 19.3647 10.1376L20.6476 11.3881L20.3448 13.1539C20.2548 13.6786 20.4664 14.1988 20.897 14.5116C21.1404 14.6884 21.425 14.7782 21.7115 14.7782C21.9322 14.7782 22.1539 14.7249 22.3588 14.6172L23.9445 13.7836L25.5303 14.6172C26.0014 14.865 26.5616 14.8244 26.9922 14.5116C27.4228 14.1988 27.6344 13.6786 27.5444 13.1539L27.2415 11.3881L28.5245 10.1376C28.9058 9.76625 29.0403 9.22098 28.8758 8.71473V8.71473ZM25.8753 10.2654C25.5482 10.5843 25.3991 11.0436 25.4763 11.4939L25.6854 12.7129L24.5906 12.1374C24.3883 12.031 24.1664 11.9779 23.9445 11.9779C23.7227 11.9779 23.5007 12.0311 23.2986 12.1374L22.2037 12.713L22.4128 11.4939C22.49 11.0436 22.3408 10.5843 22.0135 10.2652L21.1278 9.40191L22.3517 9.22402C22.8041 9.1584 23.1948 8.87445 23.397 8.46465L23.9444 7.35547L24.4918 8.46477C24.6942 8.87457 25.0849 9.1584 25.537 9.22402L26.761 9.40191L25.8753 10.2654Z" fill="black"/>
<path d="M41.2384 8.71473C41.074 8.20848 40.6446 7.84649 40.1179 7.76997L38.3449 7.51227L37.552 5.90575C37.3165 5.42856 36.8394 5.13196 36.3073 5.13196C35.7751 5.13196 35.2982 5.42844 35.0625 5.90575L34.2696 7.51227L32.4966 7.76997C31.9699 7.84649 31.5405 8.20848 31.376 8.71473C31.2116 9.22086 31.3461 9.76614 31.7273 10.1377L33.0103 11.3882L32.7074 13.154C32.6174 13.6787 32.829 14.1989 33.2596 14.5118C33.503 14.6885 33.7875 14.7784 34.0741 14.7784C34.2947 14.7782 34.5165 14.725 34.7214 14.6174L36.3071 13.7837L37.8929 14.6174C38.364 14.8651 38.9242 14.8245 39.3548 14.5118C39.7854 14.199 39.997 13.6787 39.907 13.154L39.6041 11.3882L40.8871 10.1377C41.2683 9.76614 41.4029 9.22086 41.2384 8.71473V8.71473ZM38.2382 10.2651C37.9109 10.5841 37.7617 11.0434 37.8389 11.4938L38.048 12.7128L36.9532 12.1372C36.7509 12.0309 36.5291 11.9777 36.3073 11.9777C36.0854 11.9777 35.8635 12.0309 35.6613 12.1372L34.5666 12.7128L34.7756 11.4937C34.8529 11.0432 34.7036 10.584 34.3764 10.265L33.4907 9.40169L34.7147 9.22379C35.167 9.15805 35.5577 8.87422 35.7599 8.46454L36.3073 7.35536L36.8546 8.46442C37.0569 8.87422 37.4476 9.15817 37.8998 9.22379L39.1239 9.40169L38.2382 10.2651Z" fill="black"/>
<path d="M45.622 14.5118C45.8654 14.6885 46.1499 14.7784 46.4366 14.7784C46.6571 14.7782 46.8789 14.725 47.0838 14.6174L48.6696 13.7837L50.2554 14.6174C50.7264 14.8651 51.2866 14.8245 51.7173 14.5118C52.1479 14.199 52.3596 13.6787 52.2696 13.154L51.9668 11.3882L53.2498 10.1376C53.6309 9.76602 53.7655 9.22075 53.6009 8.71461C53.4365 8.20848 53.0072 7.84649 52.4804 7.76997L50.7075 7.51227L49.9146 5.90575C49.679 5.42844 49.202 5.13196 48.6697 5.13196C48.1374 5.13196 47.6605 5.42856 47.4249 5.90575L46.632 7.51227L44.859 7.76997C44.3323 7.84649 43.903 8.20848 43.7384 8.71473C43.574 9.22086 43.7086 9.76614 44.0898 10.1377L45.3726 11.3882L45.0698 13.154C44.9798 13.6787 45.1914 14.1989 45.622 14.5118V14.5118ZM47.077 9.22391C47.5293 9.15829 47.9202 8.87434 48.1223 8.46454L48.6697 7.35536L49.2171 8.46442C49.4193 8.87422 49.81 9.15817 50.2623 9.22379L51.4864 9.40169L50.6007 10.265C50.2735 10.584 50.1242 11.0432 50.2014 11.4937L50.4105 12.7127L49.3157 12.1372C49.1135 12.0308 48.8916 11.9777 48.6698 11.9777C48.448 11.9777 48.226 12.0309 48.0239 12.1372L46.9291 12.7128L47.1381 11.4941C47.2155 11.0436 47.0662 10.5841 46.7389 10.2651L45.8532 9.4018L47.077 9.22391Z" fill="black"/>
<path d="M8.78992 3.34827H56.6409C57.049 3.34827 57.3811 3.68026 57.3811 4.08843V16.8568C57.3811 17.265 57.0491 17.597 56.641 17.597H50.4084C49.923 17.597 49.5294 17.9905 49.5294 18.4759C49.5294 18.9613 49.923 19.3548 50.4084 19.3548H56.641C58.0184 19.3548 59.1389 18.2342 59.1389 16.8568V4.08854C59.1389 2.71112 58.0184 1.59058 56.6409 1.59058H8.78992C8.30453 1.59058 7.91101 1.98409 7.91101 2.46948C7.91101 2.95487 8.30453 3.34827 8.78992 3.34827V3.34827Z" fill="black"/>
<path d="M3.61088 19.3549H24.9639C25.1293 19.3549 25.2834 19.444 25.3662 19.5872L28.5253 25.0589C28.8593 25.6374 29.4575 25.9828 30.1256 25.9828C30.7937 25.9828 31.3919 25.6374 31.726 25.0589L34.8852 19.5872C34.9679 19.4439 35.1221 19.3549 35.2875 19.3549H46.8922C47.3776 19.3549 47.7711 18.9614 47.7711 18.476C47.7711 17.9906 47.3776 17.5971 46.8922 17.5971H35.2875C34.4961 17.5971 33.7587 18.0228 33.3629 18.7083L30.2038 24.18C30.196 24.1935 30.1778 24.2251 30.1256 24.2251C30.0736 24.2251 30.0553 24.1936 30.0476 24.1801L26.8884 18.7084C26.4927 18.023 25.7552 17.5972 24.9639 17.5972H3.61088C3.20272 17.5972 2.87073 17.2652 2.87073 16.8571V4.08854C2.87073 3.68038 3.20272 3.34839 3.61088 3.34839H5.27389C5.75928 3.34839 6.1528 2.95487 6.1528 2.46948C6.1528 1.98409 5.75928 1.59058 5.27389 1.59058H3.61088C2.23346 1.59058 1.11292 2.71112 1.11292 4.08854V16.8569C1.11292 18.2342 2.23358 19.3549 3.61088 19.3549V19.3549Z" fill="black"/>
</g>
<defs>
<clipPath id="clip0_238_2">
<rect width="60" height="60" fill="white"/>
</clipPath>
</defs>
</svg>
